<?xml version="1.0" standalone="no"?>
<!DOCTYPE svg PUBLIC "-//W3C//DTD SVG 20010904//EN"
 "http://www.w3.org/TR/2001/REC-SVG-20010904/DTD/svg10.dtd">
<svg version="1.0" xmlns="http://www.w3.org/2000/svg"
 width="512.000000pt" height="512.000000pt" viewBox="0 0 512.000000 512.000000"
 preserveAspectRatio="xMidYMid meet">

<g transform="translate(0.000000,512.000000) scale(0.100000,-0.100000)"
fill="#000000" stroke="none">
<path d="M1450 4278 c-33 -17 -51 -35 -67 -68 -23 -44 -23 -50 -23 -432 l0
-388 -362 0 c-357 0 -364 -1 -402 -23 -21 -12 -47 -38 -57 -57 -18 -33 -19
-85 -19 -1206 l0 -1171 23 -33 c12 -19 38 -43 57 -54 35 -21 45 -21 1235 -24
815 -2 1216 1 1251 8 62 13 111 59 125 116 4 22 9 178 9 347 l0 308 83 -3 82
-3 3 -187 2 -187 31 -25 31 -26 545 0 545 0 29 29 29 29 0 552 0 552 -29 29
-29 29 -241 0 -241 0 0 899 0 898 -22 33 c-13 18 -36 43 -51 54 l-28 21 -1232
3 -1232 2 -45 -22z m2509 -94 c19 -24 21 -40 21 -160 l0 -134 -1265 0 -1265 0
0 144 c0 138 1 146 22 160 20 14 155 16 1244 16 l1223 0 20 -26z m21 -1089 l0
-705 -266 0 c-163 0 -273 -4 -285 -10 -46 -25 -49 -49 -49 -385 l0 -315 -945
0 c-932 0 -945 0 -965 20 -20 20 -20 33 -20 723 0 386 -3 854 -7 1040 l-6 337
1271 0 1272 0 0 -705z m540 -1315 l0 -530 -525 0 -525 0 0 530 0 530 525 0
525 0 0 -530z"/>
<path d="M2267 3381 c-43 -14 -57 -30 -57 -66 0 -52 55 -123 125 -162 64 -35
196 -70 301 -80 66 -6 79 -18 47 -44 -22 -19 -53 -88 -53 -120 0 -24 -5 -27
-44 -31 -112 -13 -242 -111 -299 -227 -30 -62 -32 -72 -32 -176 0 -99 3 -116
27 -168 78 -165 261 -264 437 -236 274 43 427 338 305 587 -50 103 -171 197
-276 217 -58 11 -51 49 24 134 l39 45 92 -2 c152 -4 252 34 300 116 18 30 18
31 -2 51 -44 44 -253 20 -350 -39 -18 -12 -34 -20 -35 -18 -73 162 -163 210
-419 223 -56 2 -115 1 -130 -4z m262 -91 c79 -13 128 -38 169 -85 50 -56 44
-63 -40 -53 -109 12 -176 28 -243 54 -55 23 -115 67 -115 86 0 11 153 10 229
-2z m269 -519 c62 -32 120 -88 150 -145 24 -45 27 -62 27 -151 0 -92 -2 -104
-29 -153 -59 -106 -148 -163 -267 -170 -137 -8 -243 49 -307 166 -97 178 -16
394 176 467 57 22 195 15 250 -14z"/>
<path d="M3660 2020 c-27 -27 -22 -35 84 -140 47 -46 86 -89 86 -94 0 -5 -41
-51 -91 -102 -80 -82 -89 -95 -79 -113 22 -42 51 -25 173 97 l117 118 -128
127 c-71 70 -132 127 -135 127 -4 0 -16 -9 -27 -20z"/>
<path d="M3946 1594 c-19 -18 -19 -20 -6 -45 10 -18 23 -19 203 -19 193 0 217
4 217 36 0 7 -7 20 -16 28 -13 13 -45 16 -199 16 -154 0 -186 -3 -199 -16z"/>
</g>
</svg>
